# xmcd
#
# Track frame offsets: 
#        150
#        32065
#        52859
#        75374
#        108472
#        137272
#        155110
#        160028
#        179550
#        203237
#        225312
#
# Disc length: 3317 seconds
#
# Revision: 3
# Processed by: cddbd v1.5.2PL0 Copyright (c) Steve Scherf et al.
# Submitted via: ExactAudioCopy v0.99pb5
#
DISCID=7e0cf30b
DTITLE=Orchestre National De Jazz (Daniel Yvinec) - Around Robert Wyat
DTITLE=t [CD1) (2009)
DYEAR=2009
DGENRE=Jazz
TTITLE0=The Song
TTITLE1=Alifib
TTITLE2=Just As You Are
TTITLE3=O Caroline
TTITLE4=Kew Rhone
TTITLE5=Shipbuilding
TTITLE6=Line
TTITLE7=Alliance
TTITLE8=Vandalusia
TTITLE9=Del Mondo
TTITLE10=Te Recuerdo Amanda
EXTD=YEAR: 2009
EXTT0=
EXTT1=
EXTT2=
EXTT3=
EXTT4=
EXTT5=
EXTT6=
EXTT7=
EXTT8=
EXTT9=
EXTT10=
PLAYORDER=
